<svg width="204" height="60" viewBox="0 0 204 60" fill="none" xmlns="http://www.w3.org/2000/svg">
<path d="M123.293 37.6484C123.371 37.6615 123.736 37.7786 124.387 38C125.051 38.2083 125.852 38.4492 126.789 38.7227C127.727 38.9831 128.664 39.2174 129.602 39.4258C130.552 39.6211 131.36 39.7188 132.024 39.7188C132.597 39.7188 133.065 39.6341 133.43 39.4648C133.795 39.2956 133.977 38.9831 133.977 38.5273C133.977 38.0326 133.716 37.5833 133.196 37.1797C132.675 36.776 132.004 36.3594 131.184 35.9297C130.377 35.5 129.511 35.0117 128.586 34.4648C127.675 33.918 126.809 33.2604 125.989 32.4922C125.181 31.724 124.517 30.806 123.996 29.7383C123.476 28.6576 123.215 27.3685 123.215 25.8711C123.215 24.0352 123.599 22.4857 124.367 21.2227C125.136 19.9466 126.164 18.9245 127.453 18.1562C128.755 17.375 130.214 16.8086 131.828 16.457C133.456 16.1055 135.123 15.9297 136.828 15.9297C138.274 15.9297 139.641 16.0078 140.93 16.1641C142.219 16.3203 143.306 16.4896 144.192 16.6719C145.09 16.8542 145.656 16.9779 145.891 17.043V26.0078C145.891 26.0078 145.617 25.9492 145.071 25.832C144.537 25.7148 143.86 25.5846 143.039 25.4414C142.232 25.2982 141.392 25.168 140.52 25.0508C139.66 24.9336 138.905 24.875 138.254 24.875C137.655 24.875 137.206 24.9792 136.906 25.1875C136.607 25.3958 136.457 25.6432 136.457 25.9297C136.457 26.1641 136.587 26.4245 136.848 26.7109C137.108 26.9844 137.421 27.1992 137.785 27.3555C139.153 27.9544 140.442 28.5664 141.653 29.1914C142.864 29.8164 143.931 30.5391 144.856 31.3594C145.78 32.1797 146.503 33.1823 147.024 34.3672C147.558 35.5391 147.824 36.9779 147.824 38.6836C147.824 40.7148 147.31 42.4857 146.281 43.9961C145.266 45.5065 143.795 46.6784 141.867 47.5117C139.953 48.3451 137.642 48.7617 134.934 48.7617C132.603 48.7617 130.683 48.651 129.172 48.4297C127.662 48.2083 126.477 47.9609 125.617 47.6875C124.758 47.401 124.153 47.1471 123.801 46.9258C123.462 46.7044 123.293 46.5938 123.293 46.5938V37.6484Z" fill="#EBE9FE"/>
<path d="M97.6036 35.832L88.0919 16.8086H102.018L105.123 23.1953L108.326 16.8086H119.967L110.26 35.832V48H97.6036V35.832Z" fill="#EBE9FE"/>
<path d="M56.1133 16.8086H85.6445V26.9258H76.9531V48H64.8047V26.9258H56.1133V16.8086Z" fill="#EBE9FE"/>
</svg>
