<svg width="92" height="34" viewBox="0 0 92 34" fill="none" xmlns="http://www.w3.org/2000/svg">
<path d="M67.2932 22.6484C67.3713 22.6615 67.7359 22.7786 68.387 23C69.051 23.2083 69.8518 23.4492 70.7893 23.7227C71.7268 23.9831 72.6643 24.2174 73.6018 24.4258C74.5523 24.6211 75.3596 24.7188 76.0237 24.7188C76.5966 24.7188 77.0653 24.6341 77.4299 24.4648C77.7945 24.2956 77.9768 23.9831 77.9768 23.5273C77.9768 23.0326 77.7164 22.5833 77.1956 22.1797C76.6747 21.776 76.0042 21.3594 75.1838 20.9297C74.3765 20.5 73.5107 20.0117 72.5862 19.4648C71.6747 18.918 70.8088 18.2604 69.9885 17.4922C69.1812 16.724 68.5172 15.806 67.9963 14.7383C67.4755 13.6576 67.2151 12.3685 67.2151 10.8711C67.2151 9.03516 67.5992 7.48568 68.3674 6.22266C69.1357 4.94661 70.1643 3.92448 71.4534 3.15625C72.7555 2.375 74.2138 1.80859 75.8284 1.45703C77.456 1.10547 79.1226 0.929688 80.8284 0.929688C82.2737 0.929688 83.6409 1.00781 84.9299 1.16406C86.219 1.32031 87.3062 1.48958 88.1917 1.67188C89.0901 1.85417 89.6565 1.97786 89.8909 2.04297V11.0078C89.8909 11.0078 89.6174 10.9492 89.0706 10.832C88.5367 10.7148 87.8596 10.5846 87.0393 10.4414C86.232 10.2982 85.3922 10.168 84.5198 10.0508C83.6604 9.93359 82.9052 9.875 82.2542 9.875C81.6552 9.875 81.206 9.97917 80.9065 10.1875C80.607 10.3958 80.4573 10.6432 80.4573 10.9297C80.4573 11.1641 80.5875 11.4245 80.8479 11.7109C81.1083 11.9844 81.4208 12.1992 81.7854 12.3555C83.1526 12.9544 84.4417 13.5664 85.6526 14.1914C86.8635 14.8164 87.9312 15.5391 88.8557 16.3594C89.7802 17.1797 90.5028 18.1823 91.0237 19.3672C91.5575 20.5391 91.8245 21.9779 91.8245 23.6836C91.8245 25.7148 91.3101 27.4857 90.2815 28.9961C89.2659 30.5065 87.7945 31.6784 85.8674 32.5117C83.9534 33.3451 81.6422 33.7617 78.9338 33.7617C76.6031 33.7617 74.6825 33.651 73.1721 33.4297C71.6617 33.2083 70.4768 32.9609 69.6174 32.6875C68.7581 32.401 68.1526 32.1471 67.801 31.9258C67.4625 31.7044 67.2932 31.5938 67.2932 31.5938V22.6484Z" fill="#EBE9FE"/>
<path d="M41.6036 20.832L32.0919 1.80859H46.0177L49.1232 8.19531L52.3263 1.80859H63.9669L54.2599 20.832V33H41.6036V20.832Z" fill="#EBE9FE"/>
<path d="M0.113281 1.80859H29.6445V11.9258H20.9531V33H8.80469V11.9258H0.113281V1.80859Z" fill="#EBE9FE"/>
</svg>
